<svg height="auto" viewBox="0 0 2000 1000" xmlns="http://www.w3.org/2000/svg"><path d="M0 998.731c21-5.859 63-11.923 105-29.295 42-17.373 63-43.071 105-57.568s63 6.436 105-14.916 63-81.403 105-91.844c42-10.441 63 48.838 105 39.64s63-43.395 105-85.632 63-107.769 105-125.553c42-17.783 63 20.835 105 36.634 42 15.8 63 69.141 105 42.361 42-26.78 63-121.45 105-176.261 42-54.812 63-100.166 105-97.797 42 2.37 63 78.909 105 109.642 42 30.734 63 63.752 105 44.027s63-87.457 105-142.651c42-55.194 63-104.441 105-133.32 42-28.88 63 24.056 105-11.075 42-35.13 63-114.327 105-164.58 42-50.252 63-110.27 105-86.684 42 23.585 84 163.689 105 204.61l5 741.531H0Z" fill="#444cf71a"/><path d="M0 998.731c21-5.859 63-11.923 105-29.295 42-17.373 63-43.071 105-57.568s63 6.436 105-14.916 63-81.403 105-91.844c42-10.441 63 48.838 105 39.64s63-43.395 105-85.632 63-107.769 105-125.553c42-17.783 63 20.835 105 36.634 42 15.8 63 69.141 105 42.361 42-26.78 63-121.45 105-176.261 42-54.812 63-100.166 105-97.797 42 2.37 63 78.909 105 109.642 42 30.734 63 63.752 105 44.027s63-87.457 105-142.651c42-55.194 63-104.441 105-133.32 42-28.88 63 24.056 105-11.075 42-35.13 63-114.327 105-164.58 42-50.252 63-110.27 105-86.684 42 23.585 84 163.689 105 204.61" fill="none" stroke="#444cf7" stroke-width="4"/><g fill="#444cf7"><circle cy="998.731" r="8"/><circle cx="105" cy="969.436" r="8"/><circle cx="210" cy="911.868" r="8"/><circle cx="315" cy="896.952" r="8"/><circle cx="420" cy="805.108" r="8"/><circle cx="525" cy="844.748" r="8"/><circle cx="630" cy="759.116" r="8"/><circle cx="735" cy="633.563" r="8"/><circle cx="840" cy="670.197" r="8"/><circle cx="945" cy="712.558" r="8"/><circle cx="1050" cy="536.297" r="8"/><circle cx="1155" cy="438.5" r="8"/><circle cx="1260" cy="548.142" r="8"/><circle cx="1365" cy="592.169" r="8"/><circle cx="1470" cy="449.518" r="8"/><circle cx="1575" cy="316.198" r="8"/><circle cx="1680" cy="305.123" r="8"/><circle cx="1785" cy="140.543" r="8"/><circle cx="1890" cy="53.859" r="8"/><circle cx="1995" cy="258.47" r="8"/></g></svg>