<svg height="auto" viewBox="0 0 2000 1000" xmlns="http://www.w3.org/2000/svg"><path d="M0 25.765c21 4.926 63 10.69 105 24.63 42 13.938 63 33.14 105 45.065 42 11.924 63-.796 105 14.555 42 15.351 63 50.843 105 62.2s63-33.913 105-5.414c42 28.5 63 133.866 105 147.91 42 14.044 63-91.82 105-77.69 42 14.131 63 130.4 105 148.342 42 17.943 63-48.908 105-58.63 42-9.72 63-9.365 105 10.025s63 37.383 105 86.926 63 143.823 105 160.789c42 16.965 63-61.946 105-75.963 42-14.017 63 12.81 105 5.878s63-53.432 105-40.537c42 12.895 63 77.99 105 105.012 42 27.022 63-11.679 105 30.096s63 174.312 105 178.777c42 4.466 84-125.159 105-156.449l5 368.713H0Z" fill="#444cf71a"/><path d="M0 25.765c21 4.926 63 10.69 105 24.63 42 13.938 63 33.14 105 45.065 42 11.924 63-.796 105 14.555 42 15.351 63 50.843 105 62.2s63-33.913 105-5.414c42 28.5 63 133.866 105 147.91 42 14.044 63-91.82 105-77.69 42 14.131 63 130.4 105 148.342 42 17.943 63-48.908 105-58.63 42-9.72 63-9.365 105 10.025s63 37.383 105 86.926 63 143.823 105 160.789c42 16.965 63-61.946 105-75.963 42-14.017 63 12.81 105 5.878s63-53.432 105-40.537c42 12.895 63 77.99 105 105.012 42 27.022 63-11.679 105 30.096s63 174.312 105 178.777c42 4.466 84-125.159 105-156.449" fill="none" stroke="#444cf7" stroke-width="4"/><g fill="#444cf7"><circle cy="25.765" r="8"/><circle cx="105" cy="50.394" r="8"/><circle cx="210" cy="95.46" r="8"/><circle cx="315" cy="110.015" r="8"/><circle cx="420" cy="172.215" r="8"/><circle cx="525" cy="166.801" r="8"/><circle cx="630" cy="314.711" r="8"/><circle cx="735" cy="237.022" r="8"/><circle cx="840" cy="385.363" r="8"/><circle cx="945" cy="326.734" r="8"/><circle cx="1050" cy="336.758" r="8"/><circle cx="1155" cy="423.684" r="8"/><circle cx="1260" cy="584.473" r="8"/><circle cx="1365" cy="508.51" r="8"/><circle cx="1470" cy="514.388" r="8"/><circle cx="1575" cy="473.851" r="8"/><circle cx="1680" cy="578.863" r="8"/><circle cx="1785" cy="608.959" r="8"/><circle cx="1890" cy="787.736" r="8"/><circle cx="1995" cy="631.287" r="8"/></g></svg>