<svg height="auto" viewBox="0 0 2000 1000" xmlns="http://www.w3.org/2000/svg"><path d="M0 26.296c21 2.744 63 7.485 105 13.718 42 6.234 63 1.28 105 17.45 42 16.168 63 44.44 105 63.394s63 22.65 105 31.377c42 8.726 63-18.126 105 12.253 42 30.378 63 101.723 105 139.64 42 37.918 63 36.56 105 49.946 42 13.387 63 15.329 105 16.985 42 1.656 63-3.196 105-8.705s63-25.108 105-18.84c42 6.267 63 19.236 105 50.177 42 30.94 63 109.341 105 104.524 42-4.817 63-140.886 105-128.61 42 12.277 63 184.363 105 189.994 42 5.63 63-144.884 105-161.84 42-16.954 63 60.603 105 77.066 42 16.462 63-10.664 105 5.247 42 15.912 63-14.103 105 74.312 42 88.414 84 294.21 105 367.762l5 77.854H0Z" fill="#444cf71a"/><path d="M0 26.296c21 2.744 63 7.485 105 13.718 42 6.234 63 1.28 105 17.45 42 16.168 63 44.44 105 63.394s63 22.65 105 31.377c42 8.726 63-18.126 105 12.253 42 30.378 63 101.723 105 139.64 42 37.918 63 36.56 105 49.946 42 13.387 63 15.329 105 16.985 42 1.656 63-3.196 105-8.705s63-25.108 105-18.84c42 6.267 63 19.236 105 50.177 42 30.94 63 109.341 105 104.524 42-4.817 63-140.886 105-128.61 42 12.277 63 184.363 105 189.994 42 5.63 63-144.884 105-161.84 42-16.954 63 60.603 105 77.066 42 16.462 63-10.664 105 5.247 42 15.912 63-14.103 105 74.312 42 88.414 84 294.21 105 367.762" fill="none" stroke="#444cf7" stroke-width="4"/><g fill="#444cf7"><circle cy="26.296" r="8"/><circle cx="105" cy="40.014" r="8"/><circle cx="210" cy="57.464" r="8"/><circle cx="315" cy="120.858" r="8"/><circle cx="420" cy="152.235" r="8"/><circle cx="525" cy="164.488" r="8"/><circle cx="630" cy="304.128" r="8"/><circle cx="735" cy="354.074" r="8"/><circle cx="840" cy="371.059" r="8"/><circle cx="945" cy="362.354" r="8"/><circle cx="1050" cy="343.514" r="8"/><circle cx="1155" cy="393.691" r="8"/><circle cx="1260" cy="498.215" r="8"/><circle cx="1365" cy="369.606" r="8"/><circle cx="1470" cy="559.599" r="8"/><circle cx="1575" cy="397.76" r="8"/><circle cx="1680" cy="474.825" r="8"/><circle cx="1785" cy="480.072" r="8"/><circle cx="1890" cy="554.384" r="8"/><circle cx="1995" cy="922.146" r="8"/></g></svg>