<svg height="auto" viewBox="0 0 2000 1000" xmlns="http://www.w3.org/2000/svg"><path d="M0 25.749c21 2.913 63 3.807 105 14.566 42 10.76 63 30.523 105 39.23 42 8.708 63-20.364 105 4.306s63 109.122 105 119.047c42 9.924 63-65.157 105-69.425 42-4.269 63 25.638 105 48.082 42 22.443 63 20.46 105 64.135 42 43.675 63 111.935 105 154.24 42 42.307 63 32.069 105 57.29 42 25.223 63 65.707 105 68.82 42 3.113 63-74.33 105-53.256 42 21.075 63 151.726 105 158.628 42 6.901 63-92.185 105-124.119 42-31.934 63-87.293 105-35.55 42 51.744 63 240.623 105 294.267 42 53.645 63-51.719 105-26.045s63 142.555 105 154.414c42 11.86 63-39.197 105-95.119 42-55.921 84-147.59 105-184.488l5 385.228H0Z" fill="#444cf71a"/><path d="M0 25.749c21 2.913 63 3.807 105 14.566 42 10.76 63 30.523 105 39.23 42 8.708 63-20.364 105 4.306s63 109.122 105 119.047c42 9.924 63-65.157 105-69.425 42-4.269 63 25.638 105 48.082 42 22.443 63 20.46 105 64.135 42 43.675 63 111.935 105 154.24 42 42.307 63 32.069 105 57.29 42 25.223 63 65.707 105 68.82 42 3.113 63-74.33 105-53.256 42 21.075 63 151.726 105 158.628 42 6.901 63-92.185 105-124.119 42-31.934 63-87.293 105-35.55 42 51.744 63 240.623 105 294.267 42 53.645 63-51.719 105-26.045s63 142.555 105 154.414c42 11.86 63-39.197 105-95.119 42-55.921 84-147.59 105-184.488" fill="none" stroke="#444cf7" stroke-width="4"/><g fill="#444cf7"><circle cy="25.749" r="8"/><circle cx="105" cy="40.315" r="8"/><circle cx="210" cy="79.545" r="8"/><circle cx="315" cy="83.851" r="8"/><circle cx="420" cy="202.898" r="8"/><circle cx="525" cy="133.473" r="8"/><circle cx="630" cy="181.555" r="8"/><circle cx="735" cy="245.69" r="8"/><circle cx="840" cy="399.931" r="8"/><circle cx="945" cy="457.221" r="8"/><circle cx="1050" cy="526.04" r="8"/><circle cx="1155" cy="472.784" r="8"/><circle cx="1260" cy="631.412" r="8"/><circle cx="1365" cy="507.293" r="8"/><circle cx="1470" cy="471.744" r="8"/><circle cx="1575" cy="766.01" r="8"/><circle cx="1680" cy="739.965" r="8"/><circle cx="1785" cy="894.379" r="8"/><circle cx="1890" cy="799.26" r="8"/><circle cx="1995" cy="614.772" r="8"/></g></svg>