<svg height="auto" viewBox="0 0 2000 1000" xmlns="http://www.w3.org/2000/svg"><path d="M0 790.393c21-77.157 63-337.287 105-385.787s63 186.756 105 143.286 63-337.271 105-360.638c42-23.367 63 199.803 105 243.802 42 44 63-71.055 105-23.808 42 47.248 63 278.214 105 260.047 42-18.168 63-265.525 105-350.883 42-85.359 63-98.243 105-75.909 42 22.334 63 133.118 105 187.578 42 54.46 63 144.36 105 84.723 42-59.637 63-314.854 105-382.91 42-68.058 63-35.446 105 42.626 42 78.071 63 242.046 105 347.732 42 105.685 63 225.795 105 180.697 42-45.097 63-296.86 105-406.185 42-109.325 63-240.531 105-140.44 42 100.09 63 639.743 105 640.895 42 1.152 63-509.6 105-635.136 42-125.538 84 5.96 105 7.45l5 832.467H0Z" fill="#444cf71a"/><path d="M0 790.393c21-77.157 63-337.287 105-385.787s63 186.756 105 143.286 63-337.271 105-360.638c42-23.367 63 199.803 105 243.802 42 44 63-71.055 105-23.808 42 47.248 63 278.214 105 260.047 42-18.168 63-265.525 105-350.883 42-85.359 63-98.243 105-75.909 42 22.334 63 133.118 105 187.578 42 54.46 63 144.36 105 84.723 42-59.637 63-314.854 105-382.91 42-68.058 63-35.446 105 42.626 42 78.071 63 242.046 105 347.732 42 105.685 63 225.795 105 180.697 42-45.097 63-296.86 105-406.185 42-109.325 63-240.531 105-140.44 42 100.09 63 639.743 105 640.895 42 1.152 63-509.6 105-635.136 42-125.538 84 5.96 105 7.45" fill="none" stroke="#444cf7" stroke-width="4"/><g fill="#444cf7"><circle cy="790.393" r="8"/><circle cx="105" cy="404.606" r="8"/><circle cx="210" cy="547.892" r="8"/><circle cx="315" cy="187.254" r="8"/><circle cx="420" cy="431.056" r="8"/><circle cx="525" cy="407.248" r="8"/><circle cx="630" cy="667.295" r="8"/><circle cx="735" cy="316.412" r="8"/><circle cx="840" cy="240.503" r="8"/><circle cx="945" cy="428.081" r="8"/><circle cx="1050" cy="512.804" r="8"/><circle cx="1155" cy="129.893" r="8"/><circle cx="1260" cy="172.52" r="8"/><circle cx="1365" cy="520.252" r="8"/><circle cx="1470" cy="700.949" r="8"/><circle cx="1575" cy="294.764" r="8"/><circle cx="1680" cy="154.324" r="8"/><circle cx="1785" cy="795.219" r="8"/><circle cx="1890" cy="160.083" r="8"/><circle cx="1995" cy="167.532" r="8"/></g></svg>