<svg height="auto" viewBox="0 0 2000 1000" xmlns="http://www.w3.org/2000/svg"><path d="M0 491.579c21 43.655 63 187.256 105 218.277 42 31.02 63-76.495 105-63.172 42 13.323 63 101.655 105 129.787 42 28.132 63 60.14 105 10.873 42-49.269 63-191.05 105-257.214 42-66.165 63-79.204 105-73.61 42 5.593 63 132.593 105 101.58 42-31.015 63-176.556 105-256.652 42-80.095 63-137.383 105-143.828 42-6.445 63 55.359 105 111.602s63 108.584 105 169.613c42 61.03 63 131.127 105 135.533 42 4.407 63-154.743 105-113.499s63 281.698 105 319.719c42 38.02 63-128.213 105-129.616 42-1.402 63 225.898 105 122.602 42-103.297 63-526.099 105-639.083 42-112.985 63 26.597 105 74.16 42 47.564 84 130.927 105 163.658l5 627.691H0Z" fill="#444cf71a"/><path d="M0 491.579c21 43.655 63 187.256 105 218.277 42 31.02 63-76.495 105-63.172 42 13.323 63 101.655 105 129.787 42 28.132 63 60.14 105 10.873 42-49.269 63-191.05 105-257.214 42-66.165 63-79.204 105-73.61 42 5.593 63 132.593 105 101.58 42-31.015 63-176.556 105-256.652 42-80.095 63-137.383 105-143.828 42-6.445 63 55.359 105 111.602s63 108.584 105 169.613c42 61.03 63 131.127 105 135.533 42 4.407 63-154.743 105-113.499s63 281.698 105 319.719c42 38.02 63-128.213 105-129.616 42-1.402 63 225.898 105 122.602 42-103.297 63-526.099 105-639.083 42-112.985 63 26.597 105 74.16 42 47.564 84 130.927 105 163.658" fill="none" stroke="#444cf7" stroke-width="4"/><g fill="#444cf7"><circle cy="491.579" r="8"/><circle cx="105" cy="709.856" r="8"/><circle cx="210" cy="646.684" r="8"/><circle cx="315" cy="776.471" r="8"/><circle cx="420" cy="787.344" r="8"/><circle cx="525" cy="530.13" r="8"/><circle cx="630" cy="456.52" r="8"/><circle cx="735" cy="558.099" r="8"/><circle cx="840" cy="301.448" r="8"/><circle cx="945" cy="157.62" r="8"/><circle cx="1050" cy="269.222" r="8"/><circle cx="1155" cy="438.835" r="8"/><circle cx="1260" cy="574.368" r="8"/><circle cx="1365" cy="460.869" r="8"/><circle cx="1470" cy="780.588" r="8"/><circle cx="1575" cy="650.972" r="8"/><circle cx="1680" cy="773.574" r="8"/><circle cx="1785" cy="134.491" r="8"/><circle cx="1890" cy="208.651" r="8"/><circle cx="1995" cy="372.309" r="8"/></g></svg>