<svg width="73" height="72" viewBox="0 0 73 72" fill="none" xmlns="http://www.w3.org/2000/svg">
<rect y="0.286865" width="72.335" height="71.0365" rx="20" fill="#F2F3F8"/>
<path d="M36.1675 22.027C36.714 22.027 37.2136 22.3357 37.4579 22.8245L41.1786 30.2659L49.3598 31.4558C49.9032 31.5349 50.3546 31.9155 50.5242 32.4377C50.6939 32.96 50.5524 33.5332 50.1593 33.9165L44.205 39.722L45.5444 47.9075C45.6329 48.4484 45.4072 48.9928 44.9619 49.3125C44.5166 49.6322 43.9286 49.6718 43.4444 49.4149L36.1675 45.5537L28.8907 49.4149C28.4065 49.6718 27.8185 49.6322 27.3731 49.3125C26.9278 48.9928 26.7021 48.4484 26.7907 47.9075L28.1301 39.722L22.1757 33.9165C21.7826 33.5332 21.6411 32.96 21.8108 32.4377C21.9805 31.9155 22.4319 31.5349 22.9753 31.4558L31.1564 30.2659L34.8771 22.8245C35.1215 22.3357 35.6211 22.027 36.1675 22.027ZM36.1675 26.6958L33.4003 32.2303C33.1891 32.6526 32.7847 32.9448 32.3175 33.0128L26.2825 33.8906L30.6824 38.1805C31.0195 38.5093 31.1751 38.9818 31.099 39.4465L30.108 45.5024L35.4913 42.646C35.9142 42.4216 36.4209 42.4216 36.8438 42.646L42.227 45.5024L41.236 39.4465C41.16 38.9818 41.3155 38.5093 41.6526 38.1805L46.0526 33.8906L40.0175 33.0128C39.5503 32.9448 39.1459 32.6526 38.9348 32.2303L36.1675 26.6958Z" fill="#142251"/>
</svg>
