<svg width="71" height="73" viewBox="0 0 71 73" fill="none" xmlns="http://www.w3.org/2000/svg">
<rect x="0.597656" y="0.341064" width="69.4495" height="72.335" rx="20" fill="#F2F3F8"/>
<path d="M35.3224 24.9666C32.1352 24.9666 29.5515 27.5504 29.5515 30.7376C29.5515 33.9248 32.1352 36.5085 35.3224 36.5085C38.5096 36.5085 41.0933 33.9248 41.0933 30.7376C41.0933 27.5504 38.5096 24.9666 35.3224 24.9666ZM26.666 30.7376C26.666 25.9568 30.5416 22.0812 35.3224 22.0812C40.1032 22.0812 43.9788 25.9568 43.9788 30.7376C43.9788 35.5184 40.1032 39.394 35.3224 39.394C30.5416 39.394 26.666 35.5184 26.666 30.7376ZM29.5515 45.1649C27.1611 45.1649 25.2233 47.1027 25.2233 49.4931C25.2233 50.2899 24.5773 50.9359 23.7805 50.9359C22.9837 50.9359 22.3378 50.2899 22.3378 49.4931C22.3378 45.5091 25.5675 42.2794 29.5515 42.2794H41.0933C45.0773 42.2794 48.307 45.5091 48.307 49.4931C48.307 50.2899 47.6611 50.9359 46.8643 50.9359C46.0675 50.9359 45.4215 50.2899 45.4215 49.4931C45.4215 47.1027 43.4837 45.1649 41.0933 45.1649H29.5515Z" fill="#142251"/>
</svg>
