<svg width="73" height="73" viewBox="0 0 73 73" fill="none" xmlns="http://www.w3.org/2000/svg">
<rect y="0.616577" width="72.335" height="72.335" rx="20" fill="#F2F3F8"/>
<path d="M44.1053 22.5516C44.5501 22.8097 44.8239 23.2851 44.8239 23.7994V29.5704C46.5332 29.5704 48.0704 30.3153 49.125 31.4936C50.038 32.5137 50.5948 33.8642 50.5948 35.3413C50.5948 36.8184 50.038 38.1689 49.125 39.1889C48.0704 40.3673 46.5332 41.1122 44.8239 41.1122V46.8832C44.8239 47.3975 44.5501 47.8729 44.1053 48.131C43.6605 48.3891 43.1119 48.391 42.6654 48.1358L33.282 42.7739V49.7686C33.282 50.5654 32.6361 51.2114 31.8393 51.2114H26.0683C25.2715 51.2114 24.6256 50.5654 24.6256 49.7686V42.555C23.032 42.555 21.7401 41.2631 21.7401 39.6695V31.0131C21.7401 29.4195 23.032 28.1276 24.6256 28.1276H32.8989L42.6654 22.5468C43.1119 22.2916 43.6605 22.2935 44.1053 22.5516ZM33.282 39.6695C33.5331 39.6695 33.7798 39.735 33.9978 39.8596L41.9384 44.3971V26.2855L33.9978 30.823C33.7798 30.9476 33.5331 31.0131 33.282 31.0131H24.6256V39.6695H33.282ZM27.5111 42.555V48.3259H30.3965V42.555H27.5111ZM44.8239 38.2268C45.6783 38.2268 46.4445 37.8572 46.975 37.2646C47.4327 36.7531 47.7094 36.0812 47.7094 35.3413C47.7094 34.6013 47.4327 33.9295 46.975 33.418C46.4445 32.8254 45.6783 32.4558 44.8239 32.4558V38.2268Z" fill="#142251"/>
</svg>
