<svg width="405" height="224" viewBox="0 0 405 224" fill="none" xmlns="http://www.w3.org/2000/svg">
<rect x="0.00012207" y="-0.000488281" width="405" height="224" rx="30" fill="#F3F6F9"/>
<path d="M311.604 48.9452L311.604 175.73C311.604 178.461 309.389 180.675 306.657 180.675L98.9461 180.675C96.2145 180.675 94 178.461 94 175.73L94 48.9452C94 46.2137 96.2145 43.9994 98.9461 43.9994L306.657 43.9995C309.389 43.9995 311.604 46.2137 311.604 48.9452Z" fill="#989EB1"/>
<path d="M291.379 173.618L291.379 51.3366L105.545 51.3366L105.545 173.618L291.379 173.618Z" fill="#D5ECF1"/>
<path d="M302 50.9995C303.105 50.9995 304 51.8949 304 52.9995L304 63.9995C304 65.1041 303.105 65.9995 302 65.9995C300.896 65.9995 300 65.1041 300 63.9995L300 52.9995C300 51.8949 300.896 50.9995 302 50.9995Z" fill="white"/>
<path d="M302 68.9995C303.105 68.9995 304 69.8949 304 70.9995L304 71.9995C304 73.1041 303.105 73.9995 302 73.9995C300.896 73.9995 300 73.1041 300 71.9995L300 70.9995C300 69.8949 300.896 68.9995 302 68.9995Z" fill="white"/>
<path d="M277.405 173.618L291.379 173.618L291.379 172.621L278.629 170.176L277.405 173.618Z" fill="#EFF0F3"/>
<path d="M272.47 62.7007L277.002 51.337L224.889 51.337L223.94 53.4009L272.47 62.7007Z" fill="#EFF0F3"/>
<path d="M105.545 137.007L105.545 163.454L117.443 139.288L105.545 137.007Z" fill="#EFF0F3"/>
<path d="M291.379 66.3245L291.379 51.3371L284.608 51.3371L279.651 64.0773L291.379 66.3245Z" fill="#EFF0F3"/>
<path d="M179.036 151.091L168.681 173.618L216.949 173.618L220.197 158.979L179.036 151.091Z" fill="#EFF0F3"/>
<path d="M228.591 160.588L225.615 173.619L268.655 173.619L270.387 168.598L228.591 160.588Z" fill="#EFF0F3"/>
<path d="M126.817 141.084L112.765 173.618L157.417 173.618L168.736 149.117L126.817 141.084Z" fill="#EFF0F3"/>
<path d="M191.137 100.63L105.546 79.9651L105.546 121.54L175.302 134.908L191.137 100.63Z" fill="#EFF0F3"/>
<path d="M210.567 58.5714L172.817 51.337L105.545 51.337L105.545 65.4407L196.623 88.7539L210.567 58.5714Z" fill="#EFF0F3"/>
<path d="M185.57 136.876L291.379 157.153L291.379 132.119L261.56 122.81L280.692 90.0549L291.379 91.1379L291.379 74.0583L220.673 60.5085L185.57 136.876Z" fill="#EFF0F3"/>
<path d="M119.731 139.726L126.817 141.084L168.736 149.117L175.301 134.908L105.545 121.54L105.545 137.007L117.444 139.288L119.731 139.726Z" fill="white"/>
<path d="M117.443 139.288L105.545 137.007L117.443 139.288L117.443 139.288Z" fill="white"/>
<path d="M179.036 151.092L220.197 158.98L221.389 153.61L228.864 159.398L228.591 160.588L270.387 168.598L271.099 166.534L278.629 170.177L291.379 172.621L291.379 162.227L183.344 141.719L179.036 151.092Z" fill="white"/>
<path d="M183.344 141.719L291.379 162.227L291.379 157.153L185.57 136.876L183.344 141.719Z" fill="white"/>
<path d="M272.037 63.7825L272.469 62.7008L223.939 53.401L223.447 54.4712L272.037 63.7825Z" fill="white"/>
<path d="M279.23 65.161L291.379 67.489L291.379 66.3245L279.651 64.0773L279.23 65.161Z" fill="white"/>
<path d="M213.848 51.4667L213.171 51.3369L172.816 51.3369L210.566 58.5713L213.848 51.4667Z" fill="white"/>
<path d="M279.014 65.7147L271.346 65.5177L272.038 63.7823L223.448 54.4711L220.673 60.5083L291.379 74.0581L291.379 67.4889L279.23 65.1608L279.014 65.7147Z" fill="white"/>
<path d="M168.738 149.117L157.419 173.619L168.682 173.619L179.037 151.091L168.738 149.117Z" fill="white"/>
<path d="M217.26 59.8534L210.566 58.5711L196.622 88.7537L198.424 89.2152L198.087 102.309L191.136 100.63L175.301 134.908L182.723 136.331L217.26 59.8534Z" fill="white"/>
<path d="M213.849 51.4666L223.94 53.4006L224.889 51.3368L213.908 51.3368L213.849 51.4666Z" fill="white"/>
<path d="M182.724 136.331L185.571 136.876L220.674 60.5083L217.261 59.8537L182.724 136.331Z" fill="white"/>
<path d="M182.723 136.331L175.301 134.908L168.736 149.118L179.036 151.092L183.344 141.719L180.531 141.185L182.723 136.331Z" fill="white"/>
<path d="M180.532 141.185L183.344 141.719L185.57 136.876L182.724 136.331L180.532 141.185Z" fill="white"/>
<path d="M217.262 59.8538L219.992 53.8081L223.45 54.4712L223.942 53.401L213.85 51.4669L210.568 58.5715L217.262 59.8538Z" fill="white"/>
<path d="M217.259 59.8539L220.672 60.5085L223.447 54.4713L219.99 53.8082L217.259 59.8539Z" fill="white"/>
<path d="M279.651 64.0771L284.608 51.3369L277.001 51.3369L272.469 62.7006L279.651 64.0771Z" fill="white"/>
<path d="M279.229 65.1609L279.651 64.0773L272.469 62.7007L272.037 63.7824L279.229 65.1609Z" fill="white"/>
<path d="M271.347 65.5176L279.015 65.7146L279.231 65.1607L272.039 63.7822L271.347 65.5176Z" fill="white"/>
<path d="M119.731 139.726L117.444 139.288L105.545 163.454L105.545 173.618L112.764 173.618L126.817 141.084L119.731 139.726Z" fill="white"/>
<path d="M117.446 139.288L119.733 139.726L117.446 139.288L117.446 139.288Z" fill="white"/>
<path d="M270.387 168.597L268.655 173.618L277.405 173.618L278.629 170.176L270.387 168.597Z" fill="white"/>
<path d="M271.099 166.534L270.387 168.598L278.629 170.177L271.099 166.534Z" fill="white"/>
<path d="M220.198 158.979L216.949 173.619L225.616 173.619L228.592 160.588L220.198 158.979Z" fill="white"/>
<path d="M228.865 159.398L221.391 153.61L220.199 158.98L228.593 160.588L228.865 159.398Z" fill="white"/>
<path d="M196.623 88.7538L105.546 65.4406L105.546 79.9651L191.137 100.63L196.623 88.7538Z" fill="white"/>
<path d="M198.426 89.2156L196.624 88.754L191.137 100.63L198.089 102.309L198.426 89.2156Z" fill="white"/>
<path d="M261.562 122.81L291.381 132.119L291.381 91.1376L280.694 90.0546L261.562 122.81Z" fill="#EFF0F3"/>
<path d="M189 114.5L177 142L103.5 127.5" stroke="#989EB1" stroke-width="2"/>
<path d="M199 101.381C198.957 106.52 189.345 120 189.345 120C189.345 120 179.958 106.364 180 101.226C180.043 96.0874 184.331 91.9568 189.577 91.9998C194.824 92.0431 199.042 96.2431 199 101.381Z" fill="#142251"/>
</svg>
